<svg width="128" height="128" viewBox="0 0 128 128" xmlns="http://www.w3.org/2000/svg">
    <defs>
        <linearGradient id="grad1" x1="0%" y1="0%" x2="100%" y2="100%">
            <stop offset="0%" style="stop-color:#667eea;stop-opacity:1" />
            <stop offset="100%" style="stop-color:#764ba2;stop-opacity:1" />
        </linearGradient>
    </defs>

    <!-- Background circle -->
    <circle cx="64" cy="64" r="60" fill="url(#grad1)" stroke="#fff" stroke-width="4" />

    <!-- Camera body -->
    <rect x="32" y="40" width="64" height="48" rx="8" fill="#fff" opacity="0.9" />

    <!-- Camera lens -->
    <circle cx="64" cy="64" r="16" fill="#333" />
    <circle cx="64" cy="64" r="12" fill="#fff" />
    <circle cx="64" cy="64" r="8" fill="#333" />

    <!-- Document/PDF -->
    <rect x="70" y="50" width="20" height="28" rx="2" fill="#4CAF50" opacity="0.8" />
    <rect x="72" y="52" width="16" height="2" fill="#fff" />
    <rect x="72" y="56" width="12" height="2" fill="#fff" />
    <rect x="72" y="60" width="14" height="2" fill="#fff" />
    <rect x="72" y="64" width="10" height="2" fill="#fff" />
    <rect x="72" y="68" width="16" height="2" fill="#fff" />

    <!-- Screenshot lines -->
    <line x1="20" y1="20" x2="40" y2="20" stroke="#fff" stroke-width="3" stroke-linecap="round" />
    <line x1="20" y1="20" x2="20" y2="40" stroke="#fff" stroke-width="3" stroke-linecap="round" />
    <line x1="108" y1="20" x2="88" y2="20" stroke="#fff" stroke-width="3" stroke-linecap="round" />
    <line x1="108" y1="20" x2="108" y2="40" stroke="#fff" stroke-width="3" stroke-linecap="round" />
    <line x1="20" y1="108" x2="40" y2="108" stroke="#fff" stroke-width="3" stroke-linecap="round" />
    <line x1="20" y1="108" x2="20" y2="88" stroke="#fff" stroke-width="3" stroke-linecap="round" />
    <line x1="108" y1="108" x2="88" y2="108" stroke="#fff" stroke-width="3" stroke-linecap="round" />
    <line x1="108" y1="108" x2="108" y2="88" stroke="#fff" stroke-width="3" stroke-linecap="round" />
</svg>